<svg width="683" height="379" viewBox="0 0 683 379" fill="none" xmlns="http://www.w3.org/2000/svg">
<path d="M18.9138 206.651L0 211.555V376.176H18.9138V292.114C25.2185 276.703 35.0256 271.099 46.2338 271.099C57.442 271.099 67.9497 276.002 70.0513 294.916V376.176H88.2646V292.114C88.9651 247.982 42.7313 250.083 20.3149 279.505H18.9138V206.651Z" fill="black"/>
<path d="M113.484 0.700317V307.525C117.687 280.205 137.302 260.591 168.124 260.591C190.541 259.89 210.856 273.2 218.561 294.916H220.663V0.700317H113.484Z" fill="#010101"/>
<path d="M233.27 98.7722V263.393C252.183 263.393 265.493 250.784 268.295 229.768H273.899V264.093H305.422V98.7722H233.27Z" fill="black"/>
<path d="M112.783 329.941V376.175H154.113C133.799 373.373 116.286 357.261 112.783 329.941Z" fill="#010101"/>
<path d="M177.929 376.175H220.66V342.551C214.355 360.064 198.944 373.373 180.03 376.175H177.929Z" fill="#010101"/>
<path d="M168.125 266.195C150.612 264.794 131.698 277.403 131.698 317.332C131.698 348.155 145.008 371.972 168.825 370.571C188.44 370.571 202.45 353.759 203.151 321.535C203.151 290.713 191.942 266.195 168.125 266.195Z" fill="#010101"/>
<path d="M251.483 268.297H233.27V376.176H271.097V375.475C260.59 374.074 252.183 366.369 252.183 351.658V268.297H251.483ZM273.199 268.297V353.059C273.199 364.968 278.803 371.272 289.311 370.572C294.915 370.572 301.219 367.77 305.422 362.166V268.297H273.199ZM291.412 376.176H305.422V369.871C301.92 373.374 296.316 375.475 291.412 376.176Z" fill="#010101"/>
<path d="M372.672 259.189C339.747 257.788 317.331 280.905 317.331 315.931C317.331 349.556 336.945 372.673 365.666 373.373C385.981 374.074 403.494 368.469 415.403 350.957L411.2 347.454C404.895 357.962 391.585 364.967 371.971 364.967C351.656 364.266 333.443 346.754 334.143 312.428H416.103C416.103 283.007 403.494 259.89 372.672 259.189ZM336.245 303.322C338.346 281.606 350.255 266.195 367.768 265.494C389.484 265.494 394.387 286.51 395.088 303.322H336.245Z" fill="#010101"/>
<path d="M438.521 210.154L456.034 205.251H457.435V375.475H438.521V210.154Z" fill="#010101"/>
<path d="M486.856 231.169C486.856 224.164 491.76 218.56 499.466 218.56C507.171 218.56 512.075 224.164 512.075 231.169C512.075 238.174 507.171 243.778 499.466 243.778C491.76 243.778 486.856 238.174 486.856 231.169ZM488.958 263.393L507.171 258.489H507.872V375.475H488.958V263.393Z" fill="#010101"/>
<path d="M530.987 317.332C530.987 287.21 549.901 265.495 573.719 261.291C601.039 256.388 638.166 271.799 640.968 311.728C643.77 353.759 616.45 374.074 589.13 374.074C554.805 374.775 530.987 352.358 530.987 317.332ZM584.226 371.272C598.237 371.272 619.952 362.866 620.653 321.536C620.653 290.012 608.044 267.596 583.526 267.596C565.312 267.596 552.703 282.307 552.003 313.83C552.703 349.556 566.013 369.871 584.226 371.272Z" fill="#010101"/>
<path d="M657.082 351.657C664.087 351.657 669.691 357.261 669.691 364.266C669.691 371.272 664.087 376.876 657.082 376.876C650.077 376.876 645.874 371.272 645.874 364.266C645.874 357.261 650.778 351.657 657.082 351.657Z" fill="#010101"/>
</svg>
